solid OpenSCAD_Model
  facet normal -1.000000 -0.000000 -0.000000
    outer loop
      vertex -8.100000 -2.000000 -11.950000
      vertex -8.100000 -2.000000 11.950000
      vertex -8.100000 12.000000 -11.950000
    endloop
  endfacet
  facet normal -1.000000 0.000000 0.000000
    outer loop
      vertex -8.100000 12.000000 -11.950000
      vertex -8.100000 -2.000000 11.950000
      vertex -8.100000 12.000000 11.950000
    endloop
  endfacet
  facet normal 0.000000 -1.000000 0.000000
    outer loop
      vertex -8.100000 -2.000000 11.950000
      vertex -8.100000 -2.000000 -11.950000
      vertex 8.100000 -2.000000 -11.950000
    endloop
  endfacet
  facet normal 0.000000 -1.000000 0.000000
    outer loop
      vertex 8.100000 -2.000000 11.950000
      vertex -8.100000 -2.000000 11.950000
      vertex 8.100000 -2.000000 -11.950000
    endloop
  endfacet
  facet normal 0.000000 -0.000000 -1.000000
    outer loop
      vertex -8.100000 -2.000000 -11.950000
      vertex -8.100000 12.000000 -11.950000
      vertex -6.100000 7.100000 -11.950000
    endloop
  endfacet
  facet normal 0.000000 0.000000 -1.000000
    outer loop
      vertex -8.100000 -2.000000 -11.950000
      vertex -6.100000 7.100000 -11.950000
      vertex -6.100000 0.000000 -11.950000
    endloop
  endfacet
  facet normal -0.000000 0.000000 -1.000000
    outer loop
      vertex -8.100000 -2.000000 -11.950000
      vertex -6.100000 0.000000 -11.950000
      vertex 8.100000 -2.000000 -11.950000
    endloop
  endfacet
  facet normal 0.000000 0.000000 -1.000000
    outer loop
      vertex 3.400000 8.850000 -11.950000
      vertex 6.100000 7.100000 -11.950000
      vertex 3.400000 7.100000 -11.950000
    endloop
  endfacet
  facet normal 0.000000 0.000000 -1.000000
    outer loop
      vertex 8.100000 -2.000000 -11.950000
      vertex 6.100000 0.000000 -11.950000
      vertex 8.100000 12.000000 -11.950000
    endloop
  endfacet
  facet normal 0.000000 -0.000000 -1.000000
    outer loop
      vertex 6.100000 0.000000 -11.950000
      vertex 6.100000 7.100000 -11.950000
      vertex 8.100000 12.000000 -11.950000
    endloop
  endfacet
  facet normal 0.000000 0.000000 -1.000000
    outer loop
      vertex -3.400000 7.100000 -11.950000
      vertex -8.100000 12.000000 -11.950000
      vertex -3.400000 8.850000 -11.950000
    endloop
  endfacet
  facet normal -0.000000 0.000000 -1.000000
    outer loop
      vertex -3.400000 10.050000 -11.950000
      vertex 8.100000 12.000000 -11.950000
      vertex 3.400000 10.050000 -11.950000
    endloop
  endfacet
  facet normal 0.000000 -0.000000 -1.000000
    outer loop
      vertex 6.100000 7.100000 -11.950000
      vertex 3.400000 8.850000 -11.950000
      vertex 8.100000 12.000000 -11.950000
    endloop
  endfacet
  facet normal 0.000000 0.000000 -1.000000
    outer loop
      vertex 2.190000 10.000000 -11.950000
      vertex 3.400000 8.850000 -11.950000
      vertex 2.190000 8.850000 -11.950000
    endloop
  endfacet
  facet normal 0.000000 -0.000000 -1.000000
    outer loop
      vertex -3.400000 10.050000 -11.950000
      vertex -8.100000 12.000000 -11.950000
      vertex 8.100000 12.000000 -11.950000
    endloop
  endfacet
  facet normal 0.000000 0.000000 -1.000000
    outer loop
      vertex 3.400000 8.850000 -11.950000
      vertex 2.190000 10.000000 -11.950000
      vertex 3.400000 10.000000 -11.950000
    endloop
  endfacet
  facet normal 0.000000 -0.000000 -1.000000
    outer loop
      vertex 3.400000 8.850000 -11.950000
      vertex 3.400000 10.000000 -11.950000
      vertex 8.100000 12.000000 -11.950000
    endloop
  endfacet
  facet normal 0.000000 -0.000000 -1.000000
    outer loop
      vertex 3.400000 10.000000 -11.950000
      vertex 3.400000 10.050000 -11.950000
      vertex 8.100000 12.000000 -11.950000
    endloop
  endfacet
  facet normal 0.000000 0.000000 -1.000000
    outer loop
      vertex -3.400000 10.000000 -11.950000
      vertex -8.100000 12.000000 -11.950000
      vertex -3.400000 10.050000 -11.950000
    endloop
  endfacet
  facet normal 0.000000 0.000000 -1.000000
    outer loop
      vertex -2.190000 8.850000 -11.950000
      vertex -3.400000 10.000000 -11.950000
      vertex -2.190000 10.000000 -11.950000
    endloop
  endfacet
  facet normal -0.000000 -0.000000 -1.000000
    outer loop
      vertex -3.400000 8.850000 -11.950000
      vertex -8.100000 12.000000 -11.950000
      vertex -2.190000 8.850000 -11.950000
    endloop
  endfacet
  facet normal -0.000000 -0.000000 -1.000000
    outer loop
      vertex -6.100000 7.100000 -11.950000
      vertex -8.100000 12.000000 -11.950000
      vertex -3.400000 7.100000 -11.950000
    endloop
  endfacet
  facet normal 0.000000 0.000000 -1.000000
    outer loop
      vertex -2.190000 8.850000 -11.950000
      vertex -8.100000 12.000000 -11.950000
      vertex -3.400000 10.000000 -11.950000
    endloop
  endfacet
  facet normal 0.000000 0.000000 -1.000000
    outer loop
      vertex 6.100000 0.000000 -11.950000
      vertex 8.100000 -2.000000 -11.950000
      vertex -6.100000 0.000000 -11.950000
    endloop
  endfacet
  facet normal 0.000000 1.000000 0.000000
    outer loop
      vertex -8.100000 12.000000 -11.950000
      vertex -8.100000 12.000000 11.950000
      vertex 8.100000 12.000000 -11.950000
    endloop
  endfacet
  facet normal 0.000000 1.000000 0.000000
    outer loop
      vertex 8.100000 12.000000 -11.950000
      vertex -8.100000 12.000000 11.950000
      vertex 8.100000 12.000000 11.950000
    endloop
  endfacet
  facet normal 0.000000 -0.000000 1.000000
    outer loop
      vertex -6.100000 0.000000 11.950000
      vertex -8.100000 -2.000000 11.950000
      vertex 8.100000 -2.000000 11.950000
    endloop
  endfacet
  facet normal 0.000000 0.000000 1.000000
    outer loop
      vertex -3.400000 10.050000 11.950000
      vertex 8.100000 12.000000 11.950000
      vertex -8.100000 12.000000 11.950000
    endloop
  endfacet
  facet normal 0.000000 0.000000 1.000000
    outer loop
      vertex 3.400000 8.850000 11.950000
      vertex 6.100000 7.100000 11.950000
      vertex 3.400000 10.000000 11.950000
    endloop
  endfacet
  facet normal 0.000000 -0.000000 1.000000
    outer loop
      vertex -8.100000 12.000000 11.950000
      vertex -8.100000 -2.000000 11.950000
      vertex -6.100000 0.000000 11.950000
    endloop
  endfacet
  facet normal -0.000000 0.000000 1.000000
    outer loop
      vertex -2.190000 8.850000 11.950000
      vertex -2.190000 10.000000 11.950000
      vertex -3.400000 8.850000 11.950000
    endloop
  endfacet
  facet normal 0.000000 0.000000 1.000000
    outer loop
      vertex -8.100000 12.000000 11.950000
      vertex -6.100000 0.000000 11.950000
      vertex -6.100000 7.100000 11.950000
    endloop
  endfacet
  facet normal 0.000000 0.000000 1.000000
    outer loop
      vertex -8.100000 12.000000 11.950000
      vertex -6.100000 7.100000 11.950000
      vertex -3.400000 7.100000 11.950000
    endloop
  endfacet
  facet normal 0.000000 0.000000 1.000000
    outer loop
      vertex -3.400000 10.050000 11.950000
      vertex 3.400000 10.050000 11.950000
      vertex 8.100000 12.000000 11.950000
    endloop
  endfacet
  facet normal -0.000000 0.000000 1.000000
    outer loop
      vertex -3.400000 10.000000 11.950000
      vertex -8.100000 12.000000 11.950000
      vertex -3.400000 8.850000 11.950000
    endloop
  endfacet
  facet normal 0.000000 0.000000 1.000000
    outer loop
      vertex 3.400000 7.100000 11.950000
      vertex 6.100000 7.100000 11.950000
      vertex 3.400000 8.850000 11.950000
    endloop
  endfacet
  facet normal 0.000000 0.000000 1.000000
    outer loop
      vertex -2.190000 10.000000 11.950000
      vertex -3.400000 10.000000 11.950000
      vertex -3.400000 8.850000 11.950000
    endloop
  endfacet
  facet normal -0.000000 0.000000 1.000000
    outer loop
      vertex -3.400000 10.050000 11.950000
      vertex -8.100000 12.000000 11.950000
      vertex -3.400000 10.000000 11.950000
    endloop
  endfacet
  facet normal 0.000000 -0.000000 1.000000
    outer loop
      vertex 2.190000 10.000000 11.950000
      vertex 2.190000 8.850000 11.950000
      vertex 3.400000 10.000000 11.950000
    endloop
  endfacet
  facet normal 0.000000 0.000000 1.000000
    outer loop
      vertex 3.400000 10.000000 11.950000
      vertex 6.100000 7.100000 11.950000
      vertex 3.400000 10.050000 11.950000
    endloop
  endfacet
  facet normal 0.000000 0.000000 1.000000
    outer loop
      vertex 3.400000 10.000000 11.950000
      vertex 2.190000 8.850000 11.950000
      vertex 3.400000 8.850000 11.950000
    endloop
  endfacet
  facet normal 0.000000 -0.000000 1.000000
    outer loop
      vertex 6.100000 7.100000 11.950000
      vertex 6.100000 0.000000 11.950000
      vertex 8.100000 -2.000000 11.950000
    endloop
  endfacet
  facet normal 0.000000 0.000000 1.000000
    outer loop
      vertex 8.100000 12.000000 11.950000
      vertex 6.100000 7.100000 11.950000
      vertex 8.100000 -2.000000 11.950000
    endloop
  endfacet
  facet normal 0.000000 0.000000 1.000000
    outer loop
      vertex 8.100000 12.000000 11.950000
      vertex 3.400000 10.050000 11.950000
      vertex 6.100000 7.100000 11.950000
    endloop
  endfacet
  facet normal 0.000000 0.000000 1.000000
    outer loop
      vertex -3.400000 7.100000 11.950000
      vertex -3.400000 8.850000 11.950000
      vertex -8.100000 12.000000 11.950000
    endloop
  endfacet
  facet normal 0.000000 -0.000000 1.000000
    outer loop
      vertex 6.100000 0.000000 11.950000
      vertex -6.100000 0.000000 11.950000
      vertex 8.100000 -2.000000 11.950000
    endloop
  endfacet
  facet normal 1.000000 0.000000 -0.000000
    outer loop
      vertex 8.100000 -2.000000 11.950000
      vertex 8.100000 -2.000000 -11.950000
      vertex 8.100000 12.000000 -11.950000
    endloop
  endfacet
  facet normal 1.000000 0.000000 0.000000
    outer loop
      vertex 8.100000 12.000000 11.950000
      vertex 8.100000 -2.000000 11.950000
      vertex 8.100000 12.000000 -11.950000
    endloop
  endfacet
  facet normal 0.000000 -1.000000 -0.000000
    outer loop
      vertex -3.400000 7.100000 -1.000000
      vertex 3.400000 7.100000 -1.000000
      vertex -6.100000 7.100000 -0.000000
    endloop
  endfacet
  facet normal 0.000000 -1.000000 0.000000
    outer loop
      vertex -3.400000 7.100000 -11.950000
      vertex -6.100000 7.100000 -0.000000
      vertex -6.100000 7.100000 -2.000000
    endloop
  endfacet
  facet normal -0.000000 -1.000000 -0.000000
    outer loop
      vertex -6.100000 7.100000 -11.950000
      vertex -3.400000 7.100000 -11.950000
      vertex -6.100000 7.100000 -2.000000
    endloop
  endfacet
  facet normal 0.000000 -1.000000 0.000000
    outer loop
      vertex -3.400000 7.100000 -11.950000
      vertex -3.400000 7.100000 -1.000000
      vertex -6.100000 7.100000 -0.000000
    endloop
  endfacet
  facet normal -0.000000 -1.000000 -0.000000
    outer loop
      vertex 3.400000 7.100000 -11.950000
      vertex 6.100000 7.100000 -11.950000
      vertex 3.400000 7.100000 -1.000000
    endloop
  endfacet
  facet normal 0.000000 -1.000000 0.000000
    outer loop
      vertex 6.100000 7.100000 -11.950000
      vertex 6.100000 7.100000 0.000000
      vertex 3.400000 7.100000 -1.000000
    endloop
  endfacet
  facet normal 0.000000 -1.000000 0.000000
    outer loop
      vertex 3.400000 7.100000 -1.000000
      vertex 3.400000 7.100000 0.000000
      vertex -6.100000 7.100000 -0.000000
    endloop
  endfacet
  facet normal 0.000000 -1.000000 -0.000000
    outer loop
      vertex 3.400000 7.100000 -1.000000
      vertex 6.100000 7.100000 0.000000
      vertex 3.400000 7.100000 0.000000
    endloop
  endfacet
  facet normal 0.000000 -1.000000 0.000000
    outer loop
      vertex -3.400000 7.100000 0.000000
      vertex -3.400000 7.100000 11.950000
      vertex -6.100000 7.100000 -0.000000
    endloop
  endfacet
  facet normal 0.000000 -1.000000 0.000000
    outer loop
      vertex -3.400000 7.100000 11.950000
      vertex -6.100000 7.100000 1.000000
      vertex -6.100000 7.100000 -0.000000
    endloop
  endfacet
  facet normal 0.000000 -1.000000 0.000000
    outer loop
      vertex -3.400000 7.100000 11.950000
      vertex -6.100000 7.100000 11.950000
      vertex -6.100000 7.100000 1.000000
    endloop
  endfacet
  facet normal 0.000000 -0.000000 0.000000
    outer loop
      vertex 3.400000 7.100000 0.000000
      vertex -3.400000 7.100000 0.000000
      vertex -6.100000 7.100000 -0.000000
    endloop
  endfacet
  facet normal 0.000000 -1.000000 0.000000
    outer loop
      vertex 3.400000 7.100000 11.950000
      vertex 6.100000 7.100000 0.000000
      vertex 6.100000 7.100000 11.950000
    endloop
  endfacet
  facet normal 0.000000 -1.000000 0.000000
    outer loop
      vertex 3.400000 7.100000 11.950000
      vertex 3.400000 7.100000 0.000000
      vertex 6.100000 7.100000 0.000000
    endloop
  endfacet
  facet normal 1.000000 0.000000 0.000000
    outer loop
      vertex -6.100000 0.000000 -11.950000
      vertex -6.100000 7.100000 -11.950000
      vertex -6.100000 7.100000 -2.000000
    endloop
  endfacet
  facet normal 1.000000 0.000000 0.000000
    outer loop
      vertex -6.100000 0.000000 -2.000000
      vertex -6.100000 0.000000 -11.950000
      vertex -6.100000 7.100000 -2.000000
    endloop
  endfacet
  facet normal 1.000000 -0.000000 0.000000
    outer loop
      vertex -3.400000 10.000000 -11.000000
      vertex -3.400000 10.050000 -1.000000
      vertex -3.400000 8.850000 -11.000000
    endloop
  endfacet
  facet normal 1.000000 0.000000 0.000000
    outer loop
      vertex -3.400000 7.100000 -11.950000
      vertex -3.400000 8.850000 -11.950000
      vertex -3.400000 8.850000 -11.000000
    endloop
  endfacet
  facet normal 1.000000 -0.000000 0.000000
    outer loop
      vertex -3.400000 10.050000 -1.000000
      vertex -3.400000 7.100000 -11.950000
      vertex -3.400000 8.850000 -11.000000
    endloop
  endfacet
  facet normal 1.000000 0.000000 0.000000
    outer loop
      vertex -3.400000 10.000000 -11.950000
      vertex -3.400000 10.050000 -11.950000
      vertex -3.400000 10.000000 -11.000000
    endloop
  endfacet
  facet normal 1.000000 0.000000 0.000000
    outer loop
      vertex -3.400000 10.050000 -11.950000
      vertex -3.400000 10.050000 -1.000000
      vertex -3.400000 10.000000 -11.000000
    endloop
  endfacet
  facet normal 1.000000 -0.000000 0.000000
    outer loop
      vertex -3.400000 10.050000 -1.000000
      vertex -3.400000 7.100000 -1.000000
      vertex -3.400000 7.100000 -11.950000
    endloop
  endfacet
  facet normal 0.000000 -1.000000 0.000000
    outer loop
      vertex -2.190000 8.850000 -11.000000
      vertex -3.400000 8.850000 -11.000000
      vertex -3.400000 8.850000 -11.950000
    endloop
  endfacet
  facet normal 0.000000 -1.000000 0.000000
    outer loop
      vertex -2.190000 8.850000 -11.950000
      vertex -2.190000 8.850000 -11.000000
      vertex -3.400000 8.850000 -11.950000
    endloop
  endfacet
  facet normal 1.000000 0.000000 0.000000
    outer loop
      vertex -2.190000 8.850000 -11.950000
      vertex -2.190000 10.000000 -11.950000
      vertex -2.190000 10.000000 -11.000000
    endloop
  endfacet
  facet normal 1.000000 0.000000 -0.000000
    outer loop
      vertex -2.190000 8.850000 -11.000000
      vertex -2.190000 8.850000 -11.950000
      vertex -2.190000 10.000000 -11.000000
    endloop
  endfacet
  facet normal 0.000000 1.000000 -0.000000
    outer loop
      vertex -3.400000 10.000000 -11.000000
      vertex -2.190000 10.000000 -11.000000
      vertex -3.400000 10.000000 -11.950000
    endloop
  endfacet
  facet normal 0.000000 1.000000 0.000000
    outer loop
      vertex -3.400000 10.000000 -11.950000
      vertex -2.190000 10.000000 -11.000000
      vertex -2.190000 10.000000 -11.950000
    endloop
  endfacet
  facet normal -0.000000 -1.000000 0.000000
    outer loop
      vertex -3.400000 10.050000 -11.950000
      vertex 3.400000 10.050000 -11.950000
      vertex 3.400000 10.050000 -1.000000
    endloop
  endfacet
  facet normal -0.000000 -1.000000 0.000000
    outer loop
      vertex -3.400000 10.050000 -1.000000
      vertex -3.400000 10.050000 -11.950000
      vertex 3.400000 10.050000 -1.000000
    endloop
  endfacet
  facet normal -1.000000 0.000000 -0.000000
    outer loop
      vertex 3.400000 10.050000 -11.950000
      vertex 3.400000 10.000000 -11.950000
      vertex 3.400000 10.050000 -1.000000
    endloop
  endfacet
  facet normal -1.000000 -0.000000 0.000000
    outer loop
      vertex 3.400000 10.050000 -1.000000
      vertex 3.400000 10.000000 -11.950000
      vertex 3.400000 10.000000 -11.000000
    endloop
  endfacet
  facet normal -1.000000 0.000000 -0.000000
    outer loop
      vertex 3.400000 10.050000 -1.000000
      vertex 3.400000 10.000000 -11.000000
      vertex 3.400000 8.850000 -11.000000
    endloop
  endfacet
  facet normal -1.000000 0.000000 0.000000
    outer loop
      vertex 3.400000 8.850000 -11.000000
      vertex 3.400000 8.850000 -11.950000
      vertex 3.400000 7.100000 -11.950000
    endloop
  endfacet
  facet normal -1.000000 0.000000 -0.000000
    outer loop
      vertex 3.400000 8.850000 -11.000000
      vertex 3.400000 7.100000 -11.950000
      vertex 3.400000 10.050000 -1.000000
    endloop
  endfacet
  facet normal -1.000000 0.000000 -0.000000
    outer loop
      vertex 3.400000 10.050000 -1.000000
      vertex 3.400000 7.100000 -11.950000
      vertex 3.400000 7.100000 -1.000000
    endloop
  endfacet
  facet normal 0.000000 1.000000 -0.000000
    outer loop
      vertex 2.190000 10.000000 -11.000000
      vertex 3.400000 10.000000 -11.000000
      vertex 2.190000 10.000000 -11.950000
    endloop
  endfacet
  facet normal 0.000000 1.000000 0.000000
    outer loop
      vertex 2.190000 10.000000 -11.950000
      vertex 3.400000 10.000000 -11.000000
      vertex 3.400000 10.000000 -11.950000
    endloop
  endfacet
  facet normal -1.000000 0.000000 0.000000
    outer loop
      vertex 2.190000 10.000000 -11.950000
      vertex 2.190000 8.850000 -11.950000
      vertex 2.190000 10.000000 -11.000000
    endloop
  endfacet
  facet normal -1.000000 0.000000 0.000000
    outer loop
      vertex 2.190000 10.000000 -11.000000
      vertex 2.190000 8.850000 -11.950000
      vertex 2.190000 8.850000 -11.000000
    endloop
  endfacet
  facet normal 0.000000 -1.000000 0.000000
    outer loop
      vertex 3.400000 8.850000 -11.000000
      vertex 2.190000 8.850000 -11.000000
      vertex 2.190000 8.850000 -11.950000
    endloop
  endfacet
  facet normal 0.000000 -1.000000 0.000000
    outer loop
      vertex 3.400000 8.850000 -11.950000
      vertex 3.400000 8.850000 -11.000000
      vertex 2.190000 8.850000 -11.950000
    endloop
  endfacet
  facet normal -1.000000 0.000000 -0.000000
    outer loop
      vertex 6.100000 7.100000 -11.950000
      vertex 6.100000 0.000000 -11.950000
      vertex 6.100000 7.100000 0.000000
    endloop
  endfacet
  facet normal -1.000000 0.000000 -0.000000
    outer loop
      vertex 6.100000 7.100000 0.000000
      vertex 6.100000 0.000000 -11.950000
      vertex 6.100000 0.000000 0.000000
    endloop
  endfacet
  facet normal 0.000000 1.000000 -0.000000
    outer loop
      vertex -6.100000 0.000000 11.950000
      vertex 6.100000 0.000000 11.950000
      vertex -6.100000 0.000000 1.000000
    endloop
  endfacet
  facet normal 0.000000 1.000000 0.000000
    outer loop
      vertex -6.100000 0.000000 1.000000
      vertex 6.100000 0.000000 11.950000
      vertex 6.100000 0.000000 0.000000
    endloop
  endfacet
  facet normal 0.000000 1.000000 0.000000
    outer loop
      vertex -6.100000 0.000000 1.000000
      vertex 6.100000 0.000000 0.000000
      vertex 6.100000 0.000000 -11.950000
    endloop
  endfacet
  facet normal 0.000000 1.000000 0.000000
    outer loop
      vertex -6.100000 0.000000 1.000000
      vertex 6.100000 0.000000 -11.950000
      vertex -6.100000 0.000000 -11.950000
    endloop
  endfacet
  facet normal 0.000000 -0.000000 0.000000
    outer loop
      vertex -6.100000 0.000000 1.000000
      vertex -6.100000 0.000000 -11.950000
      vertex -6.100000 0.000000 -2.000000
    endloop
  endfacet
  facet normal 0.000000 0.000000 -0.000000
    outer loop
      vertex -6.100000 0.000000 1.000000
      vertex -6.100000 0.000000 -2.000000
      vertex -6.100000 0.000000 -0.000000
    endloop
  endfacet
  facet normal 1.000000 0.000000 0.000000
    outer loop
      vertex -6.100000 7.100000 1.000000
      vertex -6.100000 7.100000 11.950000
      vertex -6.100000 0.000000 11.950000
    endloop
  endfacet
  facet normal 1.000000 0.000000 0.000000
    outer loop
      vertex -6.100000 0.000000 1.000000
      vertex -6.100000 7.100000 1.000000
      vertex -6.100000 0.000000 11.950000
    endloop
  endfacet
  facet normal -1.000000 0.000000 0.000000
    outer loop
      vertex 6.100000 7.100000 11.950000
      vertex 6.100000 7.100000 0.000000
      vertex 6.100000 0.000000 11.950000
    endloop
  endfacet
  facet normal -1.000000 0.000000 0.000000
    outer loop
      vertex 6.100000 0.000000 11.950000
      vertex 6.100000 7.100000 0.000000
      vertex 6.100000 0.000000 0.000000
    endloop
  endfacet
  facet normal -1.000000 0.000000 0.000000
    outer loop
      vertex 3.400000 8.850000 11.950000
      vertex 3.400000 8.850000 10.000000
      vertex 3.400000 7.100000 11.950000
    endloop
  endfacet
  facet normal -1.000000 0.000000 0.000000
    outer loop
      vertex 3.400000 7.100000 11.950000
      vertex 3.400000 8.850000 10.000000
      vertex 3.400000 10.050000 0.000000
    endloop
  endfacet
  facet normal -1.000000 0.000000 0.000000
    outer loop
      vertex 3.400000 10.050000 11.950000
      vertex 3.400000 10.000000 10.000000
      vertex 3.400000 10.000000 11.950000
    endloop
  endfacet
  facet normal -1.000000 0.000000 0.000000
    outer loop
      vertex 3.400000 10.050000 0.000000
      vertex 3.400000 10.000000 10.000000
      vertex 3.400000 10.050000 11.950000
    endloop
  endfacet
  facet normal -1.000000 0.000000 0.000000
    outer loop
      vertex 3.400000 8.850000 10.000000
      vertex 3.400000 10.000000 10.000000
      vertex 3.400000 10.050000 0.000000
    endloop
  endfacet
  facet normal -1.000000 0.000000 0.000000
    outer loop
      vertex 3.400000 7.100000 11.950000
      vertex 3.400000 10.050000 0.000000
      vertex 3.400000 7.100000 0.000000
    endloop
  endfacet
  facet normal 0.000000 -1.000000 0.000000
    outer loop
      vertex 2.190000 8.850000 11.950000
      vertex 2.190000 8.850000 10.000000
      vertex 3.400000 8.850000 10.000000
    endloop
  endfacet
  facet normal 0.000000 -1.000000 0.000000
    outer loop
      vertex 3.400000 8.850000 11.950000
      vertex 2.190000 8.850000 11.950000
      vertex 3.400000 8.850000 10.000000
    endloop
  endfacet
  facet normal -1.000000 0.000000 0.000000
    outer loop
      vertex 2.190000 10.000000 11.950000
      vertex 2.190000 10.000000 10.000000
      vertex 2.190000 8.850000 11.950000
    endloop
  endfacet
  facet normal -1.000000 0.000000 0.000000
    outer loop
      vertex 2.190000 8.850000 11.950000
      vertex 2.190000 10.000000 10.000000
      vertex 2.190000 8.850000 10.000000
    endloop
  endfacet
  facet normal 0.000000 1.000000 0.000000
    outer loop
      vertex 2.190000 10.000000 10.000000
      vertex 2.190000 10.000000 11.950000
      vertex 3.400000 10.000000 10.000000
    endloop
  endfacet
  facet normal 0.000000 1.000000 0.000000
    outer loop
      vertex 3.400000 10.000000 10.000000
      vertex 2.190000 10.000000 11.950000
      vertex 3.400000 10.000000 11.950000
    endloop
  endfacet
  facet normal 0.000000 -1.000000 0.000000
    outer loop
      vertex 3.400000 10.050000 0.000000
      vertex 3.400000 10.050000 11.950000
      vertex -3.400000 10.050000 11.950000
    endloop
  endfacet
  facet normal -0.000000 -1.000000 -0.000000
    outer loop
      vertex -3.400000 10.050000 0.000000
      vertex 3.400000 10.050000 0.000000
      vertex -3.400000 10.050000 11.950000
    endloop
  endfacet
  facet normal 1.000000 0.000000 0.000000
    outer loop
      vertex -3.400000 10.050000 0.000000
      vertex -3.400000 10.050000 11.950000
      vertex -3.400000 10.000000 11.950000
    endloop
  endfacet
  facet normal 1.000000 0.000000 0.000000
    outer loop
      vertex -3.400000 8.850000 10.000000
      vertex -3.400000 10.050000 0.000000
      vertex -3.400000 10.000000 10.000000
    endloop
  endfacet
  facet normal 1.000000 0.000000 0.000000
    outer loop
      vertex -3.400000 10.000000 10.000000
      vertex -3.400000 10.050000 0.000000
      vertex -3.400000 10.000000 11.950000
    endloop
  endfacet
  facet normal 1.000000 0.000000 0.000000
    outer loop
      vertex -3.400000 7.100000 11.950000
      vertex -3.400000 10.050000 0.000000
      vertex -3.400000 8.850000 10.000000
    endloop
  endfacet
  facet normal 1.000000 0.000000 0.000000
    outer loop
      vertex -3.400000 7.100000 11.950000
      vertex -3.400000 8.850000 10.000000
      vertex -3.400000 8.850000 11.950000
    endloop
  endfacet
  facet normal 1.000000 0.000000 0.000000
    outer loop
      vertex -3.400000 7.100000 0.000000
      vertex -3.400000 10.050000 0.000000
      vertex -3.400000 7.100000 11.950000
    endloop
  endfacet
  facet normal 0.000000 1.000000 0.000000
    outer loop
      vertex -3.400000 10.000000 10.000000
      vertex -3.400000 10.000000 11.950000
      vertex -2.190000 10.000000 10.000000
    endloop
  endfacet
  facet normal 0.000000 1.000000 0.000000
    outer loop
      vertex -2.190000 10.000000 10.000000
      vertex -3.400000 10.000000 11.950000
      vertex -2.190000 10.000000 11.950000
    endloop
  endfacet
  facet normal 1.000000 0.000000 0.000000
    outer loop
      vertex -2.190000 10.000000 10.000000
      vertex -2.190000 10.000000 11.950000
      vertex -2.190000 8.850000 11.950000
    endloop
  endfacet
  facet normal 1.000000 0.000000 0.000000
    outer loop
      vertex -2.190000 8.850000 10.000000
      vertex -2.190000 10.000000 10.000000
      vertex -2.190000 8.850000 11.950000
    endloop
  endfacet
  facet normal 0.000000 -1.000000 0.000000
    outer loop
      vertex -3.400000 8.850000 11.950000
      vertex -3.400000 8.850000 10.000000
      vertex -2.190000 8.850000 10.000000
    endloop
  endfacet
  facet normal 0.000000 -1.000000 0.000000
    outer loop
      vertex -2.190000 8.850000 11.950000
      vertex -3.400000 8.850000 11.950000
      vertex -2.190000 8.850000 10.000000
    endloop
  endfacet
  facet normal 1.000000 0.000000 0.000000
    outer loop
      vertex -6.100000 0.000000 -0.000000
      vertex -6.100000 7.100000 -0.000000
      vertex -6.100000 7.100000 1.000000
    endloop
  endfacet
  facet normal 1.000000 0.000000 -0.000000
    outer loop
      vertex -6.100000 0.000000 1.000000
      vertex -6.100000 0.000000 -0.000000
      vertex -6.100000 7.100000 1.000000
    endloop
  endfacet
  facet normal 1.000000 0.000000 0.000000
    outer loop
      vertex -6.100000 7.100000 -2.000000
      vertex -6.100000 7.100000 -0.000000
      vertex -6.100000 0.000000 -0.000000
    endloop
  endfacet
  facet normal 1.000000 0.000000 0.000000
    outer loop
      vertex -6.100000 0.000000 -2.000000
      vertex -6.100000 7.100000 -2.000000
      vertex -6.100000 0.000000 -0.000000
    endloop
  endfacet
  facet normal 0.000000 0.000000 1.000000
    outer loop
      vertex 3.400000 7.100000 0.000000
      vertex 3.400000 10.050000 0.000000
      vertex -3.400000 10.050000 0.000000
    endloop
  endfacet
  facet normal 0.000000 0.000000 1.000000
    outer loop
      vertex -3.400000 7.100000 0.000000
      vertex 3.400000 7.100000 0.000000
      vertex -3.400000 10.050000 0.000000
    endloop
  endfacet
  facet normal 0.000000 0.000000 -1.000000
    outer loop
      vertex 3.400000 10.050000 -1.000000
      vertex 3.400000 7.100000 -1.000000
      vertex -3.400000 10.050000 -1.000000
    endloop
  endfacet
  facet normal 0.000000 0.000000 -1.000000
    outer loop
      vertex -3.400000 10.050000 -1.000000
      vertex 3.400000 7.100000 -1.000000
      vertex -3.400000 7.100000 -1.000000
    endloop
  endfacet
  facet normal 0.000000 -0.000000 1.000000
    outer loop
      vertex -3.400000 10.000000 -11.000000
      vertex -3.400000 8.850000 -11.000000
      vertex -2.190000 8.850000 -11.000000
    endloop
  endfacet
  facet normal 0.000000 0.000000 1.000000
    outer loop
      vertex -2.190000 10.000000 -11.000000
      vertex -3.400000 10.000000 -11.000000
      vertex -2.190000 8.850000 -11.000000
    endloop
  endfacet
  facet normal 0.000000 -0.000000 1.000000
    outer loop
      vertex 2.190000 10.000000 -11.000000
      vertex 2.190000 8.850000 -11.000000
      vertex 3.400000 8.850000 -11.000000
    endloop
  endfacet
  facet normal 0.000000 0.000000 1.000000
    outer loop
      vertex 3.400000 10.000000 -11.000000
      vertex 2.190000 10.000000 -11.000000
      vertex 3.400000 8.850000 -11.000000
    endloop
  endfacet
  facet normal -0.000000 -0.000000 -1.000000
    outer loop
      vertex 2.190000 8.850000 10.000000
      vertex 2.190000 10.000000 10.000000
      vertex 3.400000 8.850000 10.000000
    endloop
  endfacet
  facet normal 0.000000 0.000000 -1.000000
    outer loop
      vertex 3.400000 8.850000 10.000000
      vertex 2.190000 10.000000 10.000000
      vertex 3.400000 10.000000 10.000000
    endloop
  endfacet
  facet normal -0.000000 -0.000000 -1.000000
    outer loop
      vertex -3.400000 8.850000 10.000000
      vertex -3.400000 10.000000 10.000000
      vertex -2.190000 8.850000 10.000000
    endloop
  endfacet
  facet normal 0.000000 0.000000 -1.000000
    outer loop
      vertex -2.190000 8.850000 10.000000
      vertex -3.400000 10.000000 10.000000
      vertex -2.190000 10.000000 10.000000
    endloop
  endfacet
endsolid OpenSCAD_Model
